<?xml version="1.0" encoding="utf-8"?>
<!-- Generator: Adobe Illustrator 25.2.0, SVG Export Plug-In . SVG Version: 6.00 Build 0)  -->
<svg version="1.1" id="Layer_1" xmlns="http://www.w3.org/2000/svg" xmlns:xlink="http://www.w3.org/1999/xlink" x="0px" y="0px"
	 viewBox="0 0 122.2 28.5" style="enable-background:new 0 0 122.2 28.5;" xml:space="preserve">
<style type="text/css">
	.st0{clip-path:url(#SVGID_1_);fill:#7BC7C5;}
	.st1{clip-path:url(#SVGID_1_);fill:#A6E4E2;}
	.st2{clip-path:url(#SVGID_1_);fill:#4ABBB7;}
	.st3{fill:#FFFFFF;}
</style>
<g>
	<defs>
		<rect id="SVGID_3_" width="122.2" height="28.5"/>
	</defs>
	<clipPath id="SVGID_1_">
		<use xlink:href="#SVGID_3_"  style="overflow:visible;"/>
	</clipPath>
	<path class="st0" d="M107.8,0H14.1C6.3,0,0,6.3,0,14.1c0,7.8,6.3,14.1,14.1,14.1h93.7c7.8,0,14.1-6.3,14.1-14.1
		C121.9,6.3,115.6,0,107.8,0z"/>
	<path class="st1" d="M120.6,8.1c-0.9-1.8-2.1-3.4-3.6-4.7c0.7,1.1,1.2,2.2,1.6,3.4s0.6,2.4,0.6,3.7c0,1.3-0.1,2.5-0.4,3.7
		c-0.3,1.2-0.7,2.4-1.4,3.5c-0.6,1.1-1.4,2.1-2.2,3c-0.9,0.9-1.9,1.7-2.9,2.3c-1.1,0.6-2.2,1.1-3.4,1.5c-1.2,0.3-2.5,0.5-3.7,0.5
		H11.3c-1.7,0-3.3-0.3-4.9-0.9c-1.6-0.6-3-1.4-4.3-2.5c2.5,4,6.9,6.6,11.9,6.6h93.7c7.8,0,14.1-6.3,14.1-14.1
		C121.9,12,121.5,10,120.6,8.1z"/>
	<path class="st2" d="M5.4,14.6c-1.1,0.6-2.4-0.4-2.1-1.7c1-4,4.4-10.3,15.2-10.3h60.3c0.6,0,0.6,0.9,0,0.9
		c-8.6,0.7-20,1.6-26.9,2.1C39.6,6.6,19.9,7.1,5.4,14.6z"/>
</g>
<path class="st3" d="M110.1,10.8h-3.7v2.4h3.3v1.5h-3.3v2.6h3.7v1.6h-5.6V9.3h5.6V10.8z M99.5,14.8h-1.9v2.6h2
	c0.9,0,1.5-0.5,1.5-1.3C101,15.3,100.4,14.8,99.5,14.8z M99.4,10.8h-1.8v2.4h1.8c0.9,0,1.4-0.4,1.4-1.2
	C100.8,11.3,100.3,10.8,99.4,10.8z M99.8,18.9h-4.2V9.3h4c2,0,3.1,1.1,3.1,2.5c0,1.2-0.7,1.9-1.6,2.2c1.1,0.2,1.9,1.2,1.9,2.3
	C103,17.9,101.8,18.9,99.8,18.9z M91.8,9.3h1.9v9.7h-1.9V9.3z M86.5,10.9h-1.6v2.8h1.6c1.1,0,1.6-0.6,1.6-1.4
	C88.1,11.4,87.6,10.9,86.5,10.9L86.5,10.9z M86.6,9.3c2.3,0,3.5,1.3,3.5,3c0,1.2-0.6,2.4-2.2,2.8l2.3,3.9h-2.2l-2.1-3.8h-0.9v3.8
	h-1.9V9.3H86.6z M76.7,9.2c2.1,0,3.9,1.1,4.5,3.1h-2.2c-0.5-0.9-1.3-1.4-2.3-1.4c-1.7,0-2.9,1.2-2.9,3.2c0,2,1.2,3.2,2.9,3.2
	c1,0,1.9-0.5,2.3-1.4h2.2c-0.6,2-2.4,3.1-4.5,3.1c-2.8,0-4.9-2-4.9-4.9C71.9,11.2,74,9.2,76.7,9.2L76.7,9.2z M67.2,19
	c-2,0-3.6-1.1-3.6-2.9h2.1c0.1,0.8,0.6,1.3,1.5,1.3c0.9,0,1.5-0.5,1.5-1.2c0-2.1-5-0.8-5-4.3c0-1.7,1.4-2.8,3.4-2.8
	c2,0,3.3,1,3.5,2.8h-2.1c0-0.6-0.6-1.1-1.4-1.1c-0.8,0-1.3,0.3-1.3,1.1c0,1.9,5,0.9,5,4.3C70.6,17.7,69.4,19,67.2,19L67.2,19z
	 M58.9,14.8h-1.9v2.6h2c0.9,0,1.5-0.5,1.5-1.3C60.4,15.3,59.8,14.8,58.9,14.8L58.9,14.8z M58.7,10.8h-1.8v2.4h1.8
	c0.9,0,1.4-0.4,1.4-1.2C60.2,11.3,59.6,10.8,58.7,10.8L58.7,10.8z M59.2,18.9H55V9.3h4c2,0,3.1,1.1,3.1,2.5c0,1.2-0.7,1.9-1.6,2.2
	c1.1,0.2,1.9,1.2,1.9,2.3C62.3,17.9,61.2,18.9,59.2,18.9L59.2,18.9z M45.3,9.3h1.9v6c0,1.3,0.7,2,1.9,2c1.2,0,2-0.7,2-2v-6h2v6
	c0,2.5-1.8,3.8-3.9,3.8c-2.1,0-3.9-1.2-3.9-3.8L45.3,9.3z M40.3,19c-2,0-3.6-1.1-3.6-2.9h2.1c0.1,0.8,0.6,1.3,1.5,1.3
	c0.9,0,1.5-0.5,1.5-1.2c0-2.1-5-0.8-5-4.3c0-1.7,1.4-2.8,3.4-2.8c2,0,3.3,1,3.5,2.8h-2.1c0-0.6-0.6-1.1-1.4-1.1
	c-0.8,0-1.3,0.3-1.3,1.1c0,1.9,5,0.9,5,4.3C43.7,17.7,42.5,19,40.3,19z"/>
<path class="st3" d="M24.4,14.8L20,17.4c-0.1,0.1-0.3,0.1-0.4,0.1c-0.2,0-0.3,0-0.4-0.1c-0.1-0.1-0.2-0.2-0.3-0.3
	c-0.1-0.1-0.1-0.3-0.1-0.4v-5.1c0-0.2,0-0.3,0.1-0.4c0.1-0.1,0.2-0.2,0.3-0.3s0.3-0.1,0.4-0.1c0.2,0,0.3,0,0.4,0.1l4.4,2.5
	c0.1,0.1,0.2,0.2,0.3,0.3c0.1,0.1,0.1,0.3,0.1,0.4c0,0.2,0,0.3-0.1,0.4C24.6,14.7,24.5,14.8,24.4,14.8L24.4,14.8z M28.3,7.9H14.4
	c-0.4,0-0.7,0.1-1,0.2c-0.3,0.1-0.6,0.3-0.9,0.6s-0.4,0.5-0.6,0.9c-0.1,0.3-0.2,0.7-0.2,1v7.1c0,0.4,0.1,0.7,0.2,1
	c0.1,0.3,0.3,0.6,0.6,0.9c0.2,0.3,0.5,0.4,0.9,0.6c0.3,0.1,0.7,0.2,1,0.2h13.9c0.4,0,0.7-0.1,1-0.2c0.3-0.1,0.6-0.3,0.9-0.6
	c0.2-0.2,0.4-0.5,0.6-0.9c0.1-0.3,0.2-0.7,0.2-1v-7.1c0-0.4-0.1-0.7-0.2-1c-0.1-0.3-0.3-0.6-0.6-0.9c-0.2-0.3-0.5-0.4-0.9-0.6
	C29,7.9,28.6,7.9,28.3,7.9z"/>
</svg>
