<svg xmlns="http://www.w3.org/2000/svg" viewBox="0 0 18.55 19.4"><defs><style>.cls-1{fill:#7f528b;}</style></defs><g id="Layer_2" data-name="Layer 2"><g id="PANELES"><path class="cls-1" d="M17.38,16.05a2.19,2.19,0,0,1-2.18,2.18H3.35a2.19,2.19,0,0,1-2.18-2.18V7.13H17.38ZM3.91,2.57v1.2a.59.59,0,0,0,.59.58.58.58,0,0,0,.58-.58V2.57A1.26,1.26,0,1,1,3.24,3.68,1.27,1.27,0,0,1,3.91,2.57Zm9.22,0V3.77a.58.58,0,0,0,.58.58.59.59,0,0,0,.59-.58V2.6a1.26,1.26,0,1,1-1.17-.05Zm2.07-.62h-.9V.59A.59.59,0,0,0,13.71,0a.58.58,0,0,0-.58.59V1.93h-8V.59A.59.59,0,0,0,4.5,0a.58.58,0,0,0-.58.59V1.93H3.35A3.35,3.35,0,0,0,0,5.28V16.05A3.35,3.35,0,0,0,3.35,19.4H15.2a3.35,3.35,0,0,0,3.35-3.35V5.28A3.35,3.35,0,0,0,15.2,1.93Z"/><rect class="cls-1" x="3.24" y="8.41" width="2.1" height="2.1" rx="0.24"/><rect class="cls-1" x="3.24" y="11.74" width="2.1" height="2.1" rx="0.24"/><path class="cls-1" d="M3.48,15.07H5.1a.24.24,0,0,1,.24.24v1.62a.24.24,0,0,1-.24.24H3.48a.24.24,0,0,1-.24-.24V15.3A.23.23,0,0,1,3.48,15.07Z"/><rect class="cls-1" x="6.57" y="8.41" width="2.1" height="2.1" rx="0.24"/><rect class="cls-1" x="6.57" y="11.74" width="2.1" height="2.1" rx="0.24"/><path class="cls-1" d="M6.81,15.07H8.43a.24.24,0,0,1,.24.24v1.62a.24.24,0,0,1-.24.24H6.81a.24.24,0,0,1-.24-.24V15.3A.23.23,0,0,1,6.81,15.07Z"/><rect class="cls-1" x="9.9" y="8.41" width="2.1" height="2.1" rx="0.24"/><rect class="cls-1" x="9.9" y="11.74" width="2.1" height="2.1" rx="0.24"/><rect class="cls-1" x="9.9" y="15.07" width="2.1" height="2.1" rx="0.24"/><rect class="cls-1" x="13.23" y="8.41" width="2.1" height="2.1" rx="0.24"/><rect class="cls-1" x="13.23" y="11.74" width="2.1" height="2.1" rx="0.24"/></g></g></svg>