<svg xmlns="http://www.w3.org/2000/svg" viewBox="0 0 71.88 71.88"><defs><style>.cls-1{fill:#9b499f;}</style></defs><g id="Layer_2" data-name="Layer 2"><g id="OBJETOS"><path class="cls-1" d="M54.84,35.94a18.9,18.9,0,1,1-36.6-6.65H0V61A10.92,10.92,0,0,0,10.92,71.88H61A10.92,10.92,0,0,0,71.88,61V29.29H53.64A18.81,18.81,0,0,1,54.84,35.94Z"/><circle class="cls-1" cx="35.94" cy="35.94" r="15.18"/><path class="cls-1" d="M61,0h-50A10.92,10.92,0,0,0,0,10.92V25.56H20.15a18.89,18.89,0,0,1,31.58,0H71.88V10.92A10.92,10.92,0,0,0,61,0ZM57.24,18.9a4.26,4.26,0,1,1,4.26-4.26A4.26,4.26,0,0,1,57.24,18.9Z"/></g></g></svg>