
<svg xmlns="http://www.w3.org/2000/svg" version="1.1" xmlns:xlink="http://www.w3.org/1999/xlink" preserveAspectRatio="none" x="0px" y="0px" width="411px" height="411px" viewBox="0 0 411 411">
<defs>
<g id="Layer0_0_FILL">
<path fill="#9B499F" stroke="none" d="
M 393.55 18.35
Q 375.25 0 349.45 0
L 63 0
Q 36.95 -0.3 18.6 18.05 0 36.1 0 62.15
L 0 349.45
Q 0 375.25 18.35 393.55 36.65 411.6 62.45 411.6
L 349.45 411.6
Q 374.95 411.6 393.3 393.55 411.6 375.25 411.6 349.45
L 411.6 62.45
Q 411.6 36.65 393.55 18.35
M 327.7 59.6
Q 337.7 59.6 345.15 66.75 352.3 73.9 352.3 83.95 352.3 93.95 345.15 101.1 337.7 108.25 327.7 108.25 317.65 108.25 310.5 101.1 303.35 93.95 303.35 83.95 303.35 73.9 310.5 66.75 317.65 59.6 327.7 59.6
M 205.6 85.85
Q 255.4 85.85 290.6 121.05 325.75 156.2 325.75 206 325.75 255.4 290.6 290.6 255.4 325.75 205.6 325.75 156.2 325.75 121.05 290.6 85.85 255.4 85.85 206 85.85 156.2 121.05 121.05 156.2 85.85 205.6 85.85
M 267.25 144.35
Q 241.75 118.85 205.65 118.85 169.85 118.85 144.35 144.35 118.85 169.85 118.85 205.95 118.85 241.75 144.35 267.25 169.85 292.75 205.65 292.75 241.75 292.75 267.25 267.25 292.75 241.75 292.75 205.95 292.75 169.85 267.25 144.35 Z"/>
</g>
</defs>

<g transform="matrix( 1, 0, 0, 1, 0,0) ">
<use xlink:href="#Layer0_0_FILL"/>
</g>
</svg>
