<svg xmlns="http://www.w3.org/2000/svg" viewBox="0 0 70.61 70.83"><defs><style>.cls-1{fill:#9b499f;}</style></defs><g id="Layer_2" data-name="Layer 2"><g id="OBJETOS"><path class="cls-1" d="M53.6,0H17A17.06,17.06,0,0,0,0,17.13V53.82a17,17,0,0,0,17,17H53.6a17.07,17.07,0,0,0,17-17.24V17A17,17,0,0,0,53.6,0ZM49.51,36.91a.46.46,0,0,1-.89.11,16.84,16.84,0,0,0-.88-2.54c-.89-2.21-2.32-5.2-4.86-5.64a18.19,18.19,0,0,1-2.43-.33,4.84,4.84,0,0,1-1.77-.66,3.5,3.5,0,0,1-1.22-1V49c-.44,3.54-4,6.19-8.29,6.19-4.64,0-8.39-3-8.39-6.85s3.75-6.85,8.39-6.85a10.37,10.37,0,0,1,3.76.77V17.9a2.32,2.32,0,0,1,4.64,0V20a33.18,33.18,0,0,0,6.74,5.19A12.85,12.85,0,0,1,49.51,36.91Z"/></g></g></svg>