<svg xmlns="http://www.w3.org/2000/svg" viewBox="0 0 71.88 71.88"><defs><style>.cls-1{fill:#9b499f;}</style></defs><g id="Layer_2" data-name="Layer 2"><g id="OBJETOS"><path class="cls-1" d="M61,0h-50A10.93,10.93,0,0,0,0,10.92V61A10.93,10.93,0,0,0,10.92,71.88H61A10.93,10.93,0,0,0,71.88,61v-50A10.93,10.93,0,0,0,61,0Zm-.43,48.55a6.42,6.42,0,0,1-5.51,5,170.77,170.77,0,0,1-19.07.7,173.38,173.38,0,0,1-19.08-.7,6.45,6.45,0,0,1-5.51-5,54.37,54.37,0,0,1-.89-12,55.6,55.6,0,0,1,.89-12,6.44,6.44,0,0,1,5.51-5A171.13,171.13,0,0,1,36,18.76,170.86,170.86,0,0,1,55,19.47a6.44,6.44,0,0,1,5.51,5,54.37,54.37,0,0,1,.89,12A54.37,54.37,0,0,1,60.53,48.55Z"/><polygon class="cls-1" points="30.59 46.07 45.37 36.55 30.59 27.04 30.59 46.07"/></g></g></svg>