<?xml version="1.0" encoding="utf-8"?>
<!-- Generator: Adobe Illustrator 25.2.0, SVG Export Plug-In . SVG Version: 6.00 Build 0)  -->
<svg version="1.1" id="Layer_1" xmlns="http://www.w3.org/2000/svg" xmlns:xlink="http://www.w3.org/1999/xlink" x="0px" y="0px"
	 viewBox="0 0 21.9 40.1" style="enable-background:new 0 0 21.9 40.1;" xml:space="preserve">
<style type="text/css">
	.st0{fill:#52526D;}
</style>
<path class="st0" d="M20.5,39.9c0.1,0.1,0.3,0.2,0.5,0.2c0.2,0,0.4,0,0.5-0.1c0.2-0.1,0.3-0.2,0.4-0.4c0.1-0.2,0.1-0.4,0.1-0.5
	L18,20l3.9-19c0-0.2,0-0.4-0.1-0.5c-0.1-0.2-0.2-0.3-0.4-0.4C21.3,0,21.2,0,21,0s-0.3,0.1-0.5,0.2L0.3,19.4
	c-0.1,0.1-0.2,0.2-0.2,0.3S0,19.9,0,20c0,0.1,0,0.2,0.1,0.3c0,0.1,0.1,0.2,0.2,0.3L20.5,39.9z"/>
</svg>
