<?xml version="1.0" encoding="utf-8"?>
<!-- Generator: Adobe Illustrator 25.2.0, SVG Export Plug-In . SVG Version: 6.00 Build 0)  -->
<svg version="1.1" id="Layer_1" xmlns="http://www.w3.org/2000/svg" xmlns:xlink="http://www.w3.org/1999/xlink" x="0px" y="0px"
	 viewBox="0 0 22 40.1" style="enable-background:new 0 0 22 40.1;" xml:space="preserve">
<style type="text/css">
	.st0{fill:#52526D;}
</style>
<path class="st0" d="M21.7,20.6c0.1-0.1,0.2-0.2,0.2-0.3C22,20.2,22,20.1,22,20s-0.1-0.2-0.1-0.3s-0.1-0.2-0.2-0.3L1.5,0.2
	C1.3,0.1,1.2,0,1,0S0.7,0,0.6,0.1C0.4,0.2,0.3,0.3,0.2,0.5C0.1,0.6,0.1,0.8,0.1,1L4,20L0,39.1c0,0.1,0,0.3,0.1,0.5s0.2,0.3,0.4,0.4
	c0.1,0.1,0.3,0.1,0.5,0.1s0.4-0.1,0.5-0.2L21.7,20.6z"/>
</svg>
