<?xml version="1.0" encoding="UTF-8"?><svg id="Layer_1" xmlns="http://www.w3.org/2000/svg" viewBox="0 0 140 40"><defs><style>.cls-1{fill:#fff;stroke-width:0px;}</style></defs><path class="cls-1" d="M120.91,15.48c-.07,0-.13-.02-.19-.06-.11-.07-.17-.18-.16-.31l.53-8.01c0-.13.09-.24.2-.3.11-.05.23-.05.33.02.64.41,1.27.82,1.9,1.23l1.63,1.06c.06.04.13.08.19.12.1.06.2.12.29.18,0,0,0-.01,0-.02.04-.61.08-1.22.11-1.82.07-1.24.15-2.52.27-3.78,0-.08.04-.14.08-.19.09-.13.26-.2.43-.11.03.01.06.03.09.05l6.97,4.36c.11.07.17.19.17.31,0,.12-.07.23-.18.29l-12.49,6.92c-.05.03-.11.04-.17.04M120.82,15.08v.05s.02.07.04.08c.03.02.07.03.11,0l.04-.02-.19-.11ZM121.29,14.8l-.02.24,11.88-6.58-.2-.12-11.66,6.47ZM121.32,7.46l-.48,7.31.21-.12.47-7.07c-.07-.04-.13-.08-.2-.13M121.76,7.74l-.45,6.77,11.4-6.32-6.04-3.78c-.04.56-.08,1.12-.11,1.66-.02.35-.04.71-.07,1.06l-.13,1.97c-.01.19-.02.39-.04.58v.07c0,.12-.02.27-.09.39-.24.35-.62.1-.81-.02l-.04-.03c-.31-.2-.62-.4-.93-.61l-1.07-.7c-.54-.35-1.08-.7-1.62-1.05M121.77,7.45c.58.37,1.16.75,1.73,1.13l1.07.7c.31.2.62.41.93.61l.05.03c.28.18.38.2.46.09.04-.06.04-.16.05-.26,0-.03,0-.06,0-.08.02-.19.03-.39.04-.58l.13-1.97c.02-.35.04-.71.07-1.06.03-.59.07-1.19.12-1.8l-.19-.12c-.1,1.15-.17,2.31-.23,3.44-.04.61-.07,1.22-.11,1.83,0,.03,0,.07,0,.11,0,.02,0,.05,0,.07h0s0,.21,0,.21l-.08.06-.19-.13s0,0,0,0h-.01c-.12-.11-.26-.19-.39-.27-.07-.04-.14-.08-.2-.12l-1.63-1.06c-.53-.35-1.07-.69-1.6-1.04l-.02.23ZM133.41,8.09v.22s.04-.02.04-.02c.04-.02.05-.06.05-.08,0-.04-.02-.07-.05-.09l-.04-.02ZM126.69,4.13l6.27,3.92.2-.11-6.45-4.03c0,.08-.01.15-.02.23M121.45,7.02s-.03,0-.04.01c-.04.02-.06.06-.07.1v.04s.19-.11.19-.11c-.01,0-.03-.02-.04-.03-.01,0-.03-.01-.04-.01M126.29,3.75s0,0,0,0c0,.02-.05.09.03.14l.14.08c0-.06.01-.12.02-.18,0-.01,0-.04-.01-.06l-.04-.02s-.01,0-.02,0c-.03,0-.07,0-.1.03"/><path class="cls-1" d="M126.86,11.1c-.06,0-.12-.02-.17-.05-.08-.05-.14-.13-.16-.22-.09-.34-.05-.69,0-1.04.01-.11.02-.23.03-.34l.21-3.15c0-.08,0-.18,0-.27,0-.3,0-.65.15-.89.07-.11.2-.18.32-.17.28.02.53.21.75.37.07.05.13.1.2.14l3.2,2.08c.24.15.52.34.53.59,0,.14-.07.26-.22.38-.21.16-.46.29-.7.41-.11.06-.22.11-.33.17l-1.24.69s0,0,0,0l-1.32.73c-.09.05-.18.1-.26.15-.27.16-.55.33-.86.41-.03,0-.06.01-.09.01M127.21,5.22s-.06.02-.08.05c-.11.19-.11.49-.11.76,0,.1,0,.2,0,.29l-.21,3.15c0,.11-.02.23-.03.35-.03.32-.07.66,0,.95,0,.03.02.05.05.06.01,0,.04.02.07.01.27-.07.54-.23.79-.38.09-.05.18-.11.27-.16l1.03-.57s-.08-.11-.1-.18l-.88.49c-.1.05-.2.12-.3.18-.17.11-.35.21-.53.3,0,.05.01.1.03.14l-.19.14-.27-.17.03-.23s.09-.03.14-.04c0-.23.02-.47.05-.7.02-.13.03-.26.04-.38l.21-3.24s0-.1,0-.15c0-.07,0-.14,0-.21-.01,0-.02,0-.03,0l-.05-.23.2-.11.17.17s-.01.03-.02.05c.06.04.12.09.17.13.05.04.09.07.12.09l3.12,2.03s.07.04.12.07c.07.04.14.08.2.11,0,0,0,0,0,0l.24.06v.23s-.24.05-.24.05c0,0,0-.01-.01-.02-.06.03-.14.07-.22.1-.05.02-.1.04-.12.06l-1.42.79s.08.11.1.18l.96-.53c.11-.06.22-.12.34-.18.23-.12.47-.24.66-.38.06-.04.12-.11.12-.17,0-.12-.24-.28-.4-.38l-3.21-2.09c-.07-.04-.14-.09-.21-.15-.2-.15-.41-.3-.62-.32,0,0,0,0,0,0M127.48,5.85s0,.03,0,.04c0,.07,0,.13,0,.18l-.21,3.24c0,.12-.02.26-.04.39-.02.19-.05.38-.05.55.14-.07.27-.16.41-.24.11-.07.21-.13.31-.19l1.17-.65s0,0,0,0l1.71-.95s.08-.04.15-.07c.02,0,.05-.02.07-.03-.02-.01-.05-.03-.06-.03-.06-.03-.11-.06-.14-.08l-3.12-2.03s-.09-.06-.14-.11c-.01,0-.02-.02-.04-.03M129.18,9.39s-.05.04-.05.07c0,.04.02.09.06.11.03.02.06.02.09,0,.03-.02.05-.04.05-.07,0-.04-.02-.09-.06-.11-.03-.02-.06-.02-.09,0h0Z"/><path class="cls-1" d="M121.99,13.8c-.15,0-.29-.1-.33-.26-.09-.29-.05-.6-.02-.9.01-.09.02-.19.03-.27l.08-1.25c.02-.23.02-.46.03-.7.02-.55.04-1.12.14-1.65,0-.01,0-.03,0-.04,0,0,0-.02,0-.03.02-.12.1-.21.21-.24.06-.02.12-.02.18-.01.04,0,.08.01.13.03.58.27,1.13.66,1.67,1.03.23.16.46.32.69.47l.39.25c.27.17.54.35.8.52l.03.02c.15.1.38.26.33.54-.06.27-.38.42-.62.53-.06.03-.11.05-.15.08l-2.47,1.37c-.08.04-.16.09-.24.14-.25.15-.5.3-.79.37-.03,0-.06,0-.09,0M122.12,9.09c-.06.44-.08.89-.09,1.33,0,.24-.02.48-.03.71l-.08,1.25c0,.09-.02.19-.03.28-.03.28-.06.56.01.8.02.05.06.1.13.08.25-.06.48-.2.72-.34.08-.05.17-.1.25-.15l2.47-1.37s.11-.05.17-.08c.19-.09.45-.21.48-.36.02-.1-.05-.16-.22-.28l-.03-.02c-.26-.18-.53-.35-.8-.52l-.39-.25c-.23-.15-.47-.31-.7-.48-.44-.3-.89-.62-1.35-.87,0,0,0,.02,0,.03-.01.06-.02.12-.03.19.33.19.64.4.95.62.18.12.35.24.53.36l1.59,1.04c.07-.03.13-.03.18.01.02.01.07.06.06.14.01.1-.01.16-.08.19-.07.04-.14,0-.2-.05-.04.03-.08.05-.11.07-.03.02-.06.04-.07.04l-2.39,1.33c-.09.05-.18.11-.27.16-.15.09-.3.19-.46.26,0,.05.01.09.03.14l-.18.14-.27-.17.04-.23s.09-.03.14-.04c0-.17.02-.34.04-.5.01-.1.02-.19.03-.28l.08-1.16c.02-.23.02-.46.03-.69.01-.41.03-.84.08-1.24-.06-.03-.13-.07-.19-.1M122.55,9.32c-.04.37-.06.75-.07,1.12,0,.24-.02.47-.03.7l-.08,1.16c0,.09-.02.19-.03.29-.01.11-.03.24-.03.35.11-.06.22-.13.33-.2.1-.06.19-.12.28-.17l2.39-1.33s.03-.02.05-.03c.01,0,.02-.01.03-.02l-1.48-.96c-.18-.11-.35-.24-.53-.36-.27-.19-.56-.38-.84-.55M122.17,8.8s.03.05.04.06c.05.02.09.04.14.07,0-.04.01-.07.02-.11,0-.04,0-.08-.03-.1-.02-.01-.03-.02-.05-.03-.06,0-.1.05-.11.08,0,0,0,.01,0,.01,0,0,0,.02,0,.03"/><path class="cls-1" d="M120.4,30.06c-.07,0-.13-.02-.19-.05-.11-.07-.17-.18-.17-.3l.28-14.27c0-.13.08-.24.19-.31.11-.06.24-.05.34.02l6.66,4.48c.11.07.17.2.16.33,0,.12-.07.22-.18.28-.66.34-1.33.68-1.99,1.01l-1.76.89c-.07.03-.13.07-.2.11-.1.05-.2.11-.3.16,0,0,.01,0,.02.01.5.34,1.01.68,1.52,1.01,1.04.68,2.11,1.39,3.13,2.13.06.04.1.1.13.16.02.05.04.11.03.16,0,.11-.06.21-.16.27-.03.02-.06.04-.09.05l-7.27,3.84c-.05.03-.11.04-.17.04M120.29,29.66v.04s.03.07.05.09c.03.02.07.02.11,0l.04-.02-.19-.11ZM120.75,29.41v.23s6.72-3.55,6.72-3.55c-.06-.04-.12-.09-.19-.13l-6.54,3.45ZM120.57,15.79l-.27,13.58.21-.11.26-13.33-.2-.14ZM121.01,16.09l-.26,13.03,6.3-3.33c-.46-.32-.92-.63-1.38-.93-.3-.2-.59-.39-.89-.59l-1.62-1.09c-.17-.11-.34-.22-.5-.34l-.06-.04c-.1-.07-.23-.15-.29-.27-.18-.38.23-.59.42-.69l.05-.02c.34-.17.67-.34,1.01-.51l1.13-.57c.57-.29,1.15-.58,1.72-.87l-5.63-3.79ZM127.54,25.82s.1.07.15.1c0,0,.03.02.06.02l.04-.02s.01-.01.02-.02c.02-.02.03-.07.02-.11-.01-.02-.03-.04-.05-.05-.03-.02-.06-.02-.09,0l-.14.07ZM126.88,20.03c-.61.31-1.23.62-1.84.94l-1.13.57c-.34.17-.67.34-1.01.51l-.05.03c-.3.15-.37.23-.31.36.03.06.12.12.2.17.02.02.05.03.07.04.17.11.33.23.5.34l1.62,1.09c.29.2.59.39.88.59.49.33,1,.66,1.49,1l.2-.11c-.94-.66-1.92-1.31-2.86-1.93-.51-.34-1.02-.67-1.52-1.01-.03-.02-.06-.04-.09-.06-.02-.01-.04-.02-.06-.04h0s-.18-.1-.18-.1v-.09s.2-.11.2-.11c0,0,0,0,0,0h.01c.15-.06.28-.14.42-.21.07-.04.14-.08.21-.11l1.76-.89c.56-.28,1.12-.56,1.68-.85l-.19-.13ZM127.62,25.64h0,0ZM127.35,19.8v.22s.03-.02.04-.02c.03-.01.04-.04.05-.07,0-.04-.02-.08-.05-.1l-.04-.02ZM121.02,15.79l5.88,3.95c.07-.04.14-.07.21-.11l-6.08-4.09v.24ZM120.68,15.33s-.04,0-.05.01c-.03.01-.06.05-.06.09v.04s.19-.11.19-.11l-.04-.03s-.03-.01-.04-.01"/><path class="cls-1" d="M121.38,28.48c-.06,0-.13-.01-.18-.04-.12-.06-.19-.19-.22-.38-.03-.26-.02-.54,0-.81,0-.13.02-.25.02-.37l.03-1.42h0s.03-1.51.03-1.51c0-.1,0-.2,0-.31,0-.32,0-.64.08-.95.03-.09.08-.16.17-.21.08-.05.18-.06.27-.03.33.1.62.31.9.51.09.07.18.14.28.2l2.62,1.76c.07.05.15.09.23.14.26.15.56.32.69.58.06.12.06.26-.01.36-.16.23-.44.35-.69.46-.08.03-.15.07-.22.1l-3.4,1.72c-.19.09-.4.2-.59.2M121.27,25.79l-.02,1.09c0,.12-.01.25-.02.38-.02.26-.03.52,0,.77,0,.07.03.16.09.19.11.06.36-.07.53-.15l3.42-1.73c.07-.04.15-.07.23-.11.23-.1.47-.2.59-.38.02-.02.01-.07,0-.1-.1-.19-.37-.34-.6-.48-.09-.05-.18-.1-.25-.15l-2.62-1.76c-.09-.06-.19-.13-.28-.2-.26-.19-.53-.39-.82-.47-.03,0-.06,0-.08.01-.01,0-.04.03-.05.06-.08.27-.07.58-.07.88,0,.11,0,.21,0,.31l-.02,1.18c.07-.02.14-.02.2,0l.02-1c0-.11,0-.23,0-.35,0-.2-.01-.41,0-.6-.05-.02-.09-.04-.13-.05l-.03-.23.28-.15.18.14s-.02.09-.03.14c.2.11.4.26.58.4.11.08.21.16.31.22l2.69,1.81s.08.05.13.08c.06.03.12.07.18.11,0,0,.02-.02.02-.02l.23.07v.23s-.24.06-.24.06c0-.01-.02-.03-.03-.04-.06.03-.13.06-.2.08-.06.02-.11.04-.14.06l-3.32,1.68s-.07.04-.12.07c-.07.04-.14.09-.2.12,0,0,0,0,0,.01l-.17.18-.19-.12.08-.23s.01,0,.02,0c0-.07.01-.15.02-.24,0-.06.01-.11.01-.14l.03-1.63c-.07.02-.14.02-.2,0M121.73,25.47h0s-.04,1.96-.04,1.96c0,.04,0,.09-.01.16,0,.02,0,.05,0,.08.02-.01.05-.03.06-.04.06-.04.11-.07.14-.08l3.32-1.68s.1-.04.16-.07c.01,0,.03-.01.04-.02-.01,0-.02-.01-.04-.02-.06-.03-.11-.06-.15-.09l-2.69-1.81c-.1-.07-.21-.15-.32-.23-.15-.11-.3-.23-.45-.32,0,.15,0,.31,0,.47,0,.13,0,.25,0,.37l-.03,1.33ZM121.28,25.46s.01.06.04.08c.04.02.09.02.12,0,.03-.02.04-.04.04-.08h0s-.01-.06-.04-.08c-.03-.02-.09-.02-.12,0-.03.02-.04.04-.04.08"/><path class="cls-1" d="M121.51,22.16c-.09,0-.18-.03-.26-.1-.21-.19-.17-.54-.15-.8,0-.06.01-.12.01-.17l.06-2.83c0-.09,0-.18,0-.28,0-.29,0-.59.08-.87.06-.18.24-.28.43-.24.29.07.55.26.79.43.08.06.15.11.22.16l1.04.7c.19.13.39.25.59.38.46.29.94.6,1.36.96.01,0,.02.02.03.03,0,0,.01.01.02.02.14.12.15.32.03.46-.02.03-.05.07-.09.09-.53.37-1.14.65-1.73.93-.26.12-.51.24-.76.36l-.42.21c-.28.14-.56.29-.85.43l-.03.02c-.1.05-.23.12-.37.12M121.59,17.11s-.09.02-.1.07c-.07.24-.07.52-.07.79,0,.1,0,.19,0,.29l-.06,2.83c0,.05,0,.12-.01.19-.02.21-.05.49.07.59.08.07.17.04.35-.05l.04-.02c.28-.14.56-.28.84-.42l.42-.21c.25-.13.5-.25.76-.37.48-.23.98-.46,1.43-.73,0,0-.01-.01-.02-.02-.05-.04-.1-.08-.14-.12-.33.19-.67.35-1.01.51-.19.09-.39.18-.57.28l-1.7.86c-.01.08-.04.13-.1.15-.02,0-.09.03-.16-.02-.09-.04-.13-.09-.13-.16,0-.08.07-.13.14-.15,0-.05,0-.1,0-.13,0-.04,0-.06,0-.08l.05-2.74c0-.1,0-.21,0-.32,0-.18-.01-.35,0-.53-.04-.02-.09-.04-.13-.05l-.03-.23.28-.15.18.15s-.02.09-.03.14c.14.08.28.19.41.29.08.06.16.12.23.16l.96.65c.19.13.39.25.59.38.35.22.71.44,1.03.7.06-.04.12-.08.18-.12-.35-.27-.73-.51-1.11-.75-.2-.13-.4-.25-.6-.38l-1.04-.7c-.08-.05-.15-.11-.23-.17-.22-.16-.45-.33-.7-.39,0,0-.02,0-.03,0M121.86,17.73c0,.12,0,.25,0,.38,0,.12,0,.23,0,.33l-.05,2.74s0,.03,0,.06c0,.01,0,.03,0,.04l1.58-.8c.19-.1.38-.19.58-.28.3-.14.61-.29.9-.45-.3-.22-.62-.42-.93-.62-.2-.13-.4-.25-.59-.38l-.96-.65c-.07-.05-.15-.11-.24-.17-.09-.07-.19-.14-.29-.21M125.32,19.79s.06.05.09.07c.06.05.12.02.16,0,.03-.05,0-.11-.01-.13,0,0,0,0,0-.01,0,0-.01-.01-.02-.02-.03-.02-.06,0-.07,0-.04.03-.08.06-.13.08"/><path class="cls-1" d="M115.26,26.38c-2.35-1.46-4.7-2.92-7.05-4.38,0,.13,0,.26,0,.39,4.16-2.32,8.31-4.64,12.47-6.96-.11-.07-.22-.13-.34-.2-.17,2.67-.34,5.34-.51,8.01l.34-.19c-.91-.58-1.82-1.17-2.73-1.76-.47-.3-.93-.6-1.4-.9-.19-.12-.5-.35-.68-.08-.07.11-.06.28-.07.4-.02.29-.04.59-.06.88-.04.56-.07,1.11-.11,1.67-.07,1.1-.11,2.21-.21,3.31-.03.29.43.3.45,0,.17-1.86.24-3.73.36-5.6,0-.11,0-.24.02-.35-.03.02-.06.04-.08.06l.15.1c.17.15.4.26.59.38.39.25.78.51,1.18.76.79.51,1.57,1.02,2.36,1.52.15.1.33-.03.34-.19.17-2.67.34-5.34.51-8.01.01-.17-.19-.28-.34-.2-4.16,2.32-8.31,4.64-12.47,6.96-.15.09-.15.3,0,.39,2.35,1.46,4.7,2.92,7.05,4.38.25.15.48-.24.23-.39"/><path class="cls-1" d="M112.16,20.71c-.41.23-.83.46-1.24.69-.33.18-.72.34-1.02.57-.41.31,0,.57.3.76.72.47,1.44.93,2.16,1.4.35.22.7.45,1.04.67.26.17.56.46.89.48.08,0,.16-.05.2-.11.18-.29.11-.78.13-1.11.03-.54.07-1.08.1-1.62.03-.51.06-1.02.1-1.53.03-.43.13-.91.02-1.34-.03-.12-.15-.2-.27-.17-.39.1-.75.36-1.09.55-.44.25-.88.49-1.32.74-.25.14-.03.54.22.4.39-.22.78-.43,1.17-.65.35-.2.74-.5,1.14-.6-.09-.06-.18-.11-.27-.17.11.42-.02.97-.05,1.4-.03.42-.05.84-.08,1.26-.03.42-.05.84-.08,1.26-.02.24-.03.48-.05.72-.01.16.03.48-.05.62.07-.04.13-.07.2-.11-.15-.01-.39-.25-.52-.33-.15-.1-.3-.19-.45-.29-.37-.24-.75-.48-1.12-.72-.35-.22-.7-.45-1.04-.67-.17-.11-.35-.22-.52-.34-.12-.07-.46-.22-.51-.35,0,.08,0,.15,0,.23.05-.12.42-.25.53-.31.18-.1.36-.2.54-.3.39-.22.78-.43,1.17-.65.25-.14.03-.54-.22-.4"/><path class="cls-1" d="M119.44,21.65c.16-.78.13-1.62.18-2.41.03-.42.05-.83.08-1.25.02-.36.11-.78,0-1.13-.04-.12-.15-.2-.27-.17-.36.08-.68.32-.99.5-.41.23-.82.46-1.23.69-.41.23-.82.46-1.23.69-.2.11-.66.26-.71.52-.04.22.16.33.31.43.39.26.79.51,1.19.77.76.49,1.53,1.1,2.35,1.49.26.12.49-.27.23-.39-.64-.3-1.24-.77-1.83-1.15-.3-.19-.59-.38-.89-.58-.15-.1-.3-.19-.45-.29-.1-.06-.2-.13-.3-.19-.12-.14-.17-.14-.15-.03-.04.15.32-.11.39-.15.18-.1.36-.2.54-.3.31-.17.62-.34.93-.52s.62-.34.93-.52c.32-.18.68-.46,1.04-.54-.09-.06-.18-.11-.27-.17.09.32,0,.78-.03,1.1-.02.39-.05.77-.07,1.16-.05.75-.02,1.56-.17,2.29-.06.28.38.41.44.12"/><path class="cls-1" d="M113.52,18.99c-.07,0-.14-.02-.2-.06-.1-.06-.16-.18-.15-.29.03-.75.06-1.49.1-2.24l.09-1.96c0-.07,0-.15,0-.22,0-.11,0-.23.01-.34,0,0-.01,0-.02,0-.55.27-1.09.55-1.63.83-1.1.57-2.24,1.15-3.38,1.68-.07.03-.14.04-.21.03-.15-.01-.3-.12-.31-.32,0-.03,0-.07,0-.1l.22-8.22c0-.13.07-.24.18-.3.11-.06.24-.06.35,0l12.3,7.25c.11.06.18.19.17.32,0,.13-.07.24-.18.29l-7.17,3.6c-.05.03-.11.04-.16.04M113.41,18.6s0,.03,0,.05c0,.03.01.06.04.08.03.02.08.03.12,0l.04-.02-.19-.11ZM113.88,18.35c0,.08,0,.15,0,.23l6.55-3.29-.21-.12-6.33,3.18ZM113.63,13.74h0c-.03.17-.03.33-.03.48,0,.08,0,.16,0,.24l-.09,1.96c-.03.63-.06,1.26-.08,1.89l.21-.1c.03-.69.06-1.37.09-2.06l.06-1.27c.02-.37.03-.75.05-1.13v-.06c.02-.33-.02-.43-.16-.44-.07,0-.16.05-.25.09-.03.01-.05.03-.07.04-.17.09-.35.17-.52.26l-1.76.89c-.31.16-.63.32-.94.48-.53.27-1.07.55-1.61.81v.23c1.03-.49,2.07-1.03,3.08-1.54.54-.28,1.09-.56,1.63-.83.03-.02.06-.03.09-.05.02-.01.04-.02.06-.03h0s.18-.12.18-.12l.09.04-.02.23s0,0,0,0M113.67,12.99s.02,0,.03,0c.42.03.4.48.39.7v.05c-.02.38-.04.75-.05,1.13l-.06,1.27c-.03.64-.06,1.28-.08,1.92l6.06-3.05-11.23-6.62-.19,7.12c.5-.25,1-.5,1.49-.75.31-.16.63-.32.94-.48l1.76-.89c.17-.09.35-.18.52-.26l.06-.03c.1-.05.22-.12.35-.12M108.15,16.18s0,0,0,0c.02,0,.11,0,.11-.1v-.16c-.05.03-.1.05-.16.08-.01,0-.03.02-.04.04v.05s0,.01,0,.02c.01.03.04.06.08.07M108.39,16.09h0,0ZM108.28,8.13l-.21,7.61c.07-.03.14-.07.21-.1l.2-7.39-.2-.12ZM120.7,14.93v.22s.04-.02.04-.02c.04-.02.04-.06.05-.08,0-.03-.01-.07-.05-.1l-.04-.02ZM108.73,8.11l11.49,6.77.22-.11-11.7-6.9v.23ZM108.39,7.69s-.04,0-.05.01c-.03.02-.05.05-.06.09v.04s.19-.11.19-.11l-.04-.02s-.03-.01-.05-.01"/><path class="cls-1" d="M109.05,14.93h-.01c-.13,0-.25-.08-.31-.19-.12-.25-.09-.56-.06-.83,0-.08.02-.16.02-.24l.17-3.81c.01-.28.03-.61.24-.75.11-.07.26-.07.44,0,.25.1.48.25.71.4.11.07.21.14.31.2l1.23.72h0l1.3.77c.09.05.18.1.27.15.28.15.57.31.79.53.07.07.1.16.1.25,0,.09-.04.18-.1.25-.25.24-.57.39-.89.53-.1.05-.21.09-.31.14l-2.82,1.42c-.07.04-.15.08-.24.13-.26.15-.55.32-.83.32M109.3,9.31s-.05,0-.06.02c-.1.07-.12.35-.12.54l-.17,3.82c0,.08-.01.17-.02.25-.03.25-.05.51.04.7.01.02.05.04.09.05.21,0,.48-.15.71-.29.09-.05.17-.1.25-.14l2.82-1.42c.1-.05.21-.1.32-.15.3-.13.6-.27.82-.48.02-.02.03-.05.03-.07,0-.02,0-.05-.03-.07-.2-.2-.47-.35-.73-.49-.09-.05-.19-.1-.27-.15l-1.02-.6s-.02.07-.04.1c-.02.03-.04.06-.06.08l.87.51c.1.06.2.11.31.17.18.09.36.19.53.3.04-.03.08-.06.11-.09l.21.09v.32s-.22.09-.22.09c-.03-.03-.07-.07-.11-.1-.2.12-.42.22-.63.31-.12.05-.24.1-.35.16l-2.9,1.46s-.08.05-.13.08c-.06.04-.12.07-.18.11,0,.01,0,.02,0,.03l-.18.16-.2-.12.07-.23s.03,0,.05,0c0-.07.02-.15.02-.22,0-.06.02-.11.02-.15l.17-3.72s0-.09,0-.14c0-.08,0-.16,0-.23,0,0,0,0-.01,0l-.07-.23.2-.11.16.18s0,.01,0,.02c.06.04.13.08.2.14.05.03.09.06.11.08l1.4.83s.02-.07.04-.09c.02-.03.04-.06.06-.08l-.94-.56c-.11-.06-.21-.13-.32-.2-.22-.14-.44-.29-.67-.38-.04-.02-.1-.03-.14-.03M109.54,9.91s0,.05,0,.07c0,.07,0,.13,0,.17l-.17,3.72s-.01.11-.02.18c0,.01,0,.03,0,.05.01,0,.02-.02.04-.02.06-.03.11-.07.15-.09l2.9-1.46c.11-.06.23-.11.36-.16.17-.07.35-.15.5-.24-.13-.08-.27-.16-.41-.23-.11-.06-.22-.12-.32-.18l-1.15-.68s0,0,0,0l-1.69-.99s-.08-.05-.13-.09c-.02-.01-.04-.03-.07-.05M111.55,10.83c.07.04.12-.02.13-.04.01-.02.05-.09-.03-.14h0c-.08-.04-.12.02-.13.04-.01.02-.05.09.03.14h0Z"/><path class="cls-1" d="M114.5,17.45c-.07,0-.14-.03-.2-.07-.04-.04-.08-.09-.1-.15-.02-.04-.03-.08-.03-.13-.06-.64,0-1.31.04-1.96.02-.28.04-.56.06-.84l.02-.46c.01-.32.03-.64.04-.96v-.04c.01-.18.03-.46.3-.55.26-.09.56.12.77.26.05.04.1.07.14.1l2.43,1.44c.08.05.16.09.24.14.25.14.52.28.72.49.13.14.13.35,0,.49-.21.22-.49.35-.77.47-.09.04-.17.08-.25.12l-1.12.56c-.21.1-.41.22-.62.33-.48.26-.98.53-1.5.71-.01,0-.02,0-.03.01-.01,0-.02,0-.03.01h0s0,0,0,0c-.04.01-.08.02-.12.02M114.43,17.13s.03.03.05.04c.03.01.06.02.09,0,0,0,.01,0,.02,0,0,0,0,0,.01,0,0,0,.03-.02.02-.06,0-.05,0-.1-.01-.15-.04.01-.07.03-.11.04-.04.01-.06.04-.07.08,0,.02,0,.04,0,.06M114.86,16.85c0,.07,0,.14.01.21.41-.17.81-.38,1.2-.59.21-.11.42-.23.63-.33l1.12-.56c.08-.04.17-.08.26-.12.25-.11.51-.23.69-.42.04-.04.05-.1,0-.15-.17-.18-.42-.32-.66-.44-.09-.05-.17-.09-.25-.14l-2.43-1.44s-.1-.06-.16-.11c-.17-.12-.41-.28-.55-.23-.1.03-.12.12-.13.33v.04c-.02.32-.03.63-.05.95l-.02.46c-.01.28-.03.56-.06.84-.04.53-.08,1.08-.06,1.6,0,0,.02,0,.03,0,.06-.02.12-.04.18-.07,0-.38.02-.76.05-1.13.02-.21.03-.42.04-.63l.09-1.9c-.06-.05-.09-.1-.08-.16,0-.02.01-.09.09-.12.08-.06.14-.07.2-.03.07.05.07.12.06.2.04.02.09.05.11.06.03.02.06.03.07.04l2.36,1.39c.09.05.18.1.28.15.16.08.31.17.46.26.04-.03.07-.06.1-.09l.22.09v.32s-.22.08-.22.08c-.03-.03-.07-.07-.11-.1-.14.08-.3.15-.45.22-.09.04-.18.08-.25.12l-1.04.52c-.2.1-.41.21-.61.33-.36.2-.73.4-1.11.56M115.02,13.17l-.08,1.77c0,.21-.03.42-.04.64-.02.33-.05.67-.05,1.01.34-.15.67-.33,1-.51.21-.11.42-.23.62-.33l1.04-.52c.08-.04.17-.08.27-.12.11-.05.22-.1.32-.15-.11-.06-.22-.13-.34-.18-.1-.05-.2-.11-.29-.16l-2.36-1.39s-.03-.02-.06-.03c-.01,0-.02-.01-.03-.02"/><path class="cls-1" d="M113.81,4.96c2.42-1.33,4.85-2.66,7.27-3.99-.11-.07-.23-.13-.34-.2-.02,4.76-.04,9.52-.06,14.28.11-.06.23-.13.34-.19-2.24-1.46-4.48-2.91-6.73-4.37,0,.13,0,.26,0,.39.95-.51,1.91-1.01,2.87-1.51.49-.26.98-.51,1.47-.77.2-.11.55-.26.41-.55-.06-.12-.21-.19-.31-.26-.24-.16-.49-.32-.74-.48-.47-.3-.94-.61-1.4-.91-.93-.6-1.87-1.18-2.78-1.81-.24-.17-.47.23-.23.39,1.54,1.06,3.13,2.04,4.7,3.06.09.06.22.12.3.19,0-.03,0-.07,0-.1-.05.03-.1.05-.15.08-.21.08-.42.22-.62.33-.41.22-.83.43-1.24.65-.83.44-1.66.87-2.48,1.31-.16.08-.14.3,0,.39,2.24,1.46,4.48,2.91,6.73,4.37.15.1.34-.03.34-.19.02-4.76.04-9.52.06-14.28,0-.17-.19-.28-.34-.2-2.42,1.33-4.85,2.66-7.27,3.99-.26.14-.03.53.23.39"/><path class="cls-1" d="M120.27,5.03c0-.47,0-.95,0-1.42,0-.38.05-.79,0-1.17-.07-.51-.5-.27-.81-.11-.76.4-1.52.8-2.28,1.2-.37.19-.73.39-1.1.58-.28.15-.68.27-.86.53-.05.07-.04.16,0,.23.17.3.62.48.9.66.45.29.91.59,1.36.88.43.28.86.56,1.29.83.36.24.73.56,1.15.68.12.03.25-.04.28-.16.1-.39.05-.83.05-1.23,0-.5,0-1.01,0-1.51,0-.29-.45-.29-.45,0,0,.44,0,.89,0,1.33,0,.4.07.89-.04,1.28.09-.05.19-.1.28-.16-.42-.11-.84-.49-1.2-.73-.35-.23-.71-.46-1.06-.69-.35-.23-.71-.46-1.06-.69-.2-.13-.4-.26-.6-.39-.14-.09-.43-.21-.51-.35,0,.08,0,.15,0,.23.08-.12.41-.22.54-.29.16-.08.31-.17.47-.25.39-.21.78-.41,1.18-.62.37-.19.73-.39,1.1-.58.18-.1.37-.19.55-.29.12-.06.41-.29.55-.28-.07-.04-.13-.08-.2-.11.08.1,0,.49,0,.62,0,.21,0,.42,0,.62,0,.44,0,.89,0,1.33,0,.29.45.29.45,0"/><path class="cls-1" d="M115.87,10.92c.6.52,1.35.91,2.01,1.34.35.23.7.45,1.05.68.31.2.62.48.98.56.12.03.24-.03.28-.16.1-.35.05-.75.05-1.11,0-.47,0-.94,0-1.41,0-.47,0-.94,0-1.41,0-.23.1-.7-.11-.88-.17-.14-.36-.03-.52.06-.42.21-.84.44-1.25.66-.8.42-1.71.79-2.45,1.32-.24.17-.01.56.23.39.58-.41,1.28-.7,1.9-1.03.31-.16.63-.33.94-.49.16-.08.31-.16.47-.25.1-.05.21-.11.31-.16.18-.04.21-.08.09-.11-.11-.11-.06.33-.06.41,0,.21,0,.41,0,.62,0,.35,0,.71,0,1.06,0,.35,0,.71,0,1.06,0,.36.06.82-.04,1.17.09-.05.19-.1.28-.16-.32-.07-.67-.39-.95-.56-.32-.21-.65-.42-.97-.63-.63-.41-1.35-.78-1.92-1.27-.22-.19-.54.13-.32.32"/><path class="cls-1" d="M133.1,14.27l-.02,8.3c.11-.07.22-.13.34-.2l-12.47-6.95c0,.13,0,.26,0,.39,2.36-1.26,4.72-2.52,7.08-3.78-.11-.06-.23-.13-.34-.19-.01,1.08-.04,2.16-.06,3.24-.01.55-.03,1.11-.03,1.66,0,.23-.04.61.29.62.13,0,.27-.09.38-.15.26-.14.52-.28.78-.41.49-.26.98-.53,1.48-.79.97-.52,1.94-1.06,2.93-1.56.26-.13.03-.52-.23-.39-1.67.83-3.3,1.76-4.95,2.64-.1.05-.21.13-.31.17.03.01.06.03.09.04,0-.06,0-.12,0-.18.04-.22,0-.47.01-.7,0-.47.02-.93.03-1.4.02-.93.04-1.87.05-2.8,0-.18-.2-.27-.34-.19-2.36,1.26-4.72,2.52-7.08,3.78-.15.08-.14.31,0,.39,4.16,2.32,8.31,4.63,12.47,6.95.15.09.34-.03.34-.2l.02-8.3c0-.29-.45-.28-.45,0"/><path class="cls-1" d="M129.91,19.89c.41.23.83.46,1.24.69.33.18.67.43,1.02.56.48.18.48-.31.49-.65.02-.86.03-1.71.05-2.57,0-.41.02-.83.02-1.24,0-.31.09-.72-.05-1.01-.04-.07-.12-.11-.2-.11-.34,0-.72.31-1.01.47-.48.25-.95.51-1.43.76-.45.24-.9.48-1.35.72-.38.2-.85.37-1.15.68-.08.09-.09.23,0,.32.29.28.7.45,1.05.64.44.25.88.49,1.32.74.25.14.48-.25.22-.4-.39-.22-.78-.43-1.17-.65-.35-.2-.81-.37-1.11-.65,0,.11,0,.21,0,.32.3-.31.84-.49,1.22-.7.37-.2.74-.4,1.11-.59.37-.2.74-.4,1.11-.59.21-.11.42-.23.64-.34.14-.08.39-.28.55-.28-.07-.04-.13-.07-.2-.11.07.13,0,.46,0,.61,0,.18,0,.35-.01.53,0,.44-.02.89-.03,1.33,0,.41-.02.83-.03,1.24,0,.21,0,.41-.01.62,0,.14.06.51-.03.62.06-.04.13-.08.19-.12-.13.02-.43-.23-.54-.29-.18-.1-.36-.2-.54-.3-.39-.22-.78-.43-1.17-.65-.25-.14-.48.25-.22.4"/><path class="cls-1" d="M126.88,13.2c-.74.28-1.45.74-2.15,1.11-.37.2-.74.39-1.1.59-.32.17-.72.31-.97.59-.08.09-.09.23,0,.32.26.26.63.41.95.58.41.23.82.46,1.23.69.41.23.82.46,1.23.69.2.11.56.42.82.33.21-.08.2-.3.2-.49.02-.47.02-.94.03-1.41.02-.91.14-1.88.03-2.78-.03-.29-.49-.28-.45,0,.08.7,0,1.45-.02,2.16,0,.35-.01.71-.02,1.06,0,.18,0,.35-.01.53,0,.12,0,.24,0,.35-.05.17-.03.22.05.14.15-.05-.26-.22-.33-.25-.18-.1-.36-.2-.54-.3-.31-.17-.62-.34-.93-.52-.31-.17-.62-.34-.93-.52-.32-.18-.75-.34-1.01-.6,0,.11,0,.21,0,.32.22-.25.66-.4.95-.56.34-.18.68-.36,1.02-.55.66-.35,1.34-.8,2.04-1.07.27-.1.15-.54-.12-.44"/><path class="cls-1" d="M94.48,25.41c.09.65.17,1.27.26,1.88,0,.06.1.1.15.15.03-.07.09-.14.07-.2-.2-.78-.08-1.56.02-2.34.2-1.56.31-3.13.58-4.67.56-3.15,1.15-6.29,1.82-9.42.37-1.74.7-3.5,1.55-5.1.14-.26.11-.61.14-.91,0-.06-.07-.18-.11-.18-.09,0-.21.04-.26.11-.13.2-.25.4-.33.63-.29.87-.63,1.73-.84,2.62-.7,2.99-1.35,5.98-2.03,8.97-.06.26-.16.6-.36.73-.36.24-.81.36-1.23.51-.22.08-.36-.03-.35-.27,0-.13.02-.26.04-.39.58-2.74,1.12-5.5,1.76-8.23.28-1.22.51-2.47,1.18-3.57.07-.11.13-.25.13-.37,0-.25-.05-.5-.08-.74-.17.18-.41.33-.49.54-.34.91-.7,1.82-.92,2.76-.76,3.32-1.48,6.65-2.18,9.99-.11.51-.33.8-.79.95-1.3.42-2.59.85-3.89,1.26-.2.06-.41.1-.62.11-.54.02-.74-.17-.65-.7.09-.49.27-.95.39-1.44.03-.14,0-.29,0-.43-.15.07-.4.1-.44.22-.15.36-.28.74-.33,1.12-.18,1.38.3,1.81,1.65,1.44.94-.25,1.85-.59,2.77-.89.42-.14.84-.3,1.26-.44.31-.1.45.02.41.35-.11.94-.26,1.87-.33,2.81-.11,1.36-.19,2.71-.26,4.07-.01.3.09.62.16.92.01.06.09.11.14.17.04-.08.11-.16.11-.24-.02-.47-.11-.94-.08-1.4.05-.89.15-1.77.27-2.65.17-1.3.36-2.59.57-3.89.03-.21.15-.49.32-.59.38-.23.8-.38,1.22-.54.33-.12.44.04.39.35-.06.41-.14.83-.19,1.24-.22,1.9-.42,3.8-.63,5.69M87.03,3.44c-.08,2.51-.68,4.74-1.43,6.93-.95,2.79-2.21,5.44-3.72,7.97-1.68,2.8-3.53,5.47-5.97,7.67-.71.64-1.52,1.21-2.36,1.68-.86.48-1.39.15-1.38-.83.01-1.15.03-2.32.21-3.45.83-5.2,2.4-10.2,4.11-15.17.29-.84.6-1.68.89-2.52.02-.06-.06-.16-.09-.24-.06.04-.15.06-.19.12-.08.13-.14.28-.2.42-.31.78-.62,1.56-.91,2.35-1.33,3.68-2.64,7.36-3.39,11.21-.41,2.08-.71,4.18-.99,6.28-.07.49.11,1.03.24,1.53.13.49.51.68,1.02.7.65.02,1.17-.28,1.68-.6,1.67-1.04,3-2.45,4.25-3.94,2.52-3.02,4.62-6.3,6.13-9.94,1.31-3.16,2.38-6.39,2.59-9.84.03-.55-.1-1.16-.33-1.66-.34-.74-1.21-.69-1.61.02-.04.08-.03.19-.04.28.06-.03.14-.06.19-.1.06-.05.11-.12.17-.17.47-.41.79-.35.98.24.13.39.12.82.15,1.06M101.92,21.56c.61-.13,1.25-.19,1.83-.42,1.93-.75,3.84-1.55,5.74-2.36.55-.24,1.06-.58,1.58-.88.07-.04.11-.15.16-.23-.09.03-.19.04-.27.08-1.87.83-3.72,1.7-5.62,2.46-1.02.41-2.1.67-3.17.89-1.01.21-1.6-.48-1.38-1.47.03-.13.06-.26.08-.38.08-.48-.04-.62-.47-.45-.63.25-1.24.57-1.86.85-.36.16-.73.3-1.1.41-.1.03-.29,0-.35-.08-.05-.07,0-.25.05-.35.58-.93,1.44-1.5,2.46-1.85.15-.05.35.03.52.07.11.02.21.09.32.13-.07-.11-.11-.27-.2-.31-.25-.1-.57-.28-.79-.21-1.15.38-2.12,1.04-2.68,2.16-.09.18-.12.49-.02.65.16.28.49.28.78.16.51-.21,1-.45,1.5-.69.26-.12.5-.29.77-.39.43-.16.61-.02.54.44-.17,1.06.5,1.81,1.6,1.77M88.23,14.35c-.12.34-.21.54-.24.75,0,.07.14.16.22.24.1-.19.23-.37.3-.57.02-.06-.12-.18-.28-.42"/><path class="cls-1" d="M9.96,21.25c-.04-1.95.5-3.79,1.13-5.6.62-1.79,1.34-3.53,2.24-5.2.09-.16.16-.33.26-.49.03-.06.12-.08.18-.12.01.07.06.16.03.22-.14.37-.3.73-.45,1.09-.71,1.8-1.48,3.59-2.11,5.42-.56,1.61-.95,3.29-.83,5.02.06.91.28,1.81.49,2.7.08.34.29.68.51.96.54.69,1.17.7,1.69,0,.5-.67.97-1.37,1.37-2.11,2.8-5.2,5.62-10.38,8.68-15.43.38-.63.83-1.21,1.25-1.81.11-.15.24-.28.38-.4.51-.41,1.05-.23,1.16.43.07.41.06.84.02,1.26-.25,2.27-.74,4.5-1.35,6.7-1.02,3.65-2.29,7.2-3.84,10.66-.02.05-.04.1-.06.15-.19.51-.1.61.42.58.99-.05,1.99-.09,2.98-.13.13,0,.26.07.4.1-.14.05-.28.13-.42.15-.86.07-1.73.12-2.59.18-.26.02-.52.08-.78.11-.35.04-.55.22-.69.55-1.11,2.47-2.33,4.88-3.78,7.17-1.04,1.65-2.17,3.23-3.63,4.53-1.06.95-2.22,1.67-3.75,1.52-1.36-.13-2.35-1.09-2.56-2.45-.23-1.49.2-2.79.94-4.04,1.16-1.98,2.87-3.39,4.81-4.55,2.32-1.38,4.76-2.44,7.42-2.95.38-.07.57-.29.73-.63,1.42-3.03,2.56-6.15,3.42-9.38.65-2.46,1.25-4.93,1.84-7.41.14-.58.19-1.19.21-1.79,0-.2-.17-.41-.26-.61-.22.11-.53.15-.65.33-.64.96-1.27,1.93-1.85,2.93-1.85,3.2-3.69,6.41-5.51,9.63-.8,1.42-1.54,2.86-2.34,4.28-.42.76-.86,1.51-1.34,2.22-.91,1.36-2.19,1.29-3.04-.13-.48-.81-.69-1.69-.75-2.62-.02-.34,0-.68,0-1.02M6.75,36.38c-.11,2.44,2.39,3.19,4.09,2.13.44-.28.86-.61,1.24-.96,1.81-1.64,3.21-3.6,4.42-5.69,1.02-1.77,1.95-3.59,2.92-5.39.04-.07.07-.14.1-.21.09-.23.03-.36-.23-.34-.13.01-.25.06-.38.09-2.47.51-4.75,1.48-6.89,2.8-1.63,1-3.03,2.26-4.08,3.86-.69,1.04-1.17,2.17-1.19,3.72"/><path class="cls-1" d="M94.48,25.41c.21-1.89.42-3.79.63-5.69.05-.42.13-.83.19-1.24.05-.31-.06-.48-.39-.35-.42.16-.84.31-1.22.54-.17.1-.28.37-.32.59-.21,1.29-.4,2.59-.57,3.89-.12.88-.21,1.77-.27,2.65-.03.46.06.94.08,1.4,0,.08-.07.16-.11.24-.05-.06-.12-.11-.14-.17-.06-.31-.17-.62-.16-.92.06-1.36.14-2.72.26-4.07.08-.94.22-1.87.33-2.81.04-.33-.1-.45-.41-.35-.42.14-.84.3-1.26.44-.92.3-1.84.63-2.77.89-1.35.37-1.83-.06-1.65-1.44.05-.38.18-.76.33-1.12.05-.11.29-.15.45-.22,0,.15.03.3,0,.43-.12.48-.3.95-.39,1.44-.09.53.1.72.65.7.21,0,.42-.05.62-.11,1.3-.42,2.59-.84,3.89-1.26.46-.15.68-.44.79-.95.69-3.34,1.42-6.67,2.18-9.99.22-.94.58-1.85.92-2.76.08-.21.32-.36.49-.54.03.25.08.5.08.74,0,.12-.06.26-.13.37-.68,1.1-.9,2.35-1.18,3.57-.63,2.73-1.18,5.48-1.76,8.23-.03.13-.04.26-.04.39,0,.24.13.35.35.27.42-.15.86-.27,1.23-.51.2-.13.3-.47.36-.73.68-2.99,1.33-5.99,2.03-8.97.21-.89.54-1.75.84-2.62.07-.22.2-.43.33-.63.04-.07.17-.1.26-.11.03,0,.11.12.11.18-.03.31,0,.65-.14.91-.85,1.6-1.18,3.37-1.55,5.1-.66,3.13-1.26,6.27-1.82,9.42-.27,1.54-.39,3.12-.58,4.67-.1.78-.22,1.56-.02,2.34.01.06-.05.13-.07.2-.05-.05-.14-.09-.15-.15-.09-.62-.17-1.24-.26-1.88"/><path class="cls-1" d="M87.03,3.44c-.03-.24-.03-.67-.15-1.06-.19-.59-.51-.65-.98-.24-.06.05-.1.12-.17.17-.06.04-.13.07-.19.1.01-.09,0-.2.04-.28.4-.71,1.27-.76,1.61-.02.23.5.37,1.11.33,1.66-.21,3.45-1.28,6.68-2.59,9.84-1.51,3.64-3.61,6.92-6.13,9.94-1.25,1.49-2.58,2.9-4.25,3.94-.51.32-1.03.61-1.68.6-.51-.01-.89-.21-1.02-.7-.13-.5-.31-1.04-.24-1.53.28-2.1.58-4.2.99-6.28.75-3.85,2.06-7.53,3.39-11.21.29-.79.6-1.57.91-2.35.06-.15.12-.29.2-.42.03-.06.12-.08.19-.12.03.08.11.18.09.24-.29.84-.6,1.68-.89,2.52-1.71,4.96-3.28,9.97-4.11,15.17-.18,1.13-.2,2.3-.21,3.45,0,.98.52,1.32,1.38.83.84-.47,1.64-1.04,2.36-1.68,2.44-2.2,4.29-4.87,5.97-7.67,1.52-2.53,2.77-5.18,3.72-7.97.75-2.19,1.35-4.41,1.43-6.93"/><path class="cls-1" d="M37.67,16.92c-.89.6-1.77,1.21-2.66,1.81-.51.34-.69.75-.52,1.4.23.88.43,1.8.43,2.71-.01,2.05-1.1,3.87-3.22,4.56-.26.09-.57.07-.86.06-.86-.03-1.28-.46-1.35-1.31-.08-.93.22-1.76.65-2.55.54-1,1.22-1.9,2.04-2.68.36-.35.71-.7,1.06-1.05.11-.11.23-.22.33-.34.21-.28.19-.76-.04-1.02-.25-.28-.49-.05-.71.05-1.5.69-2.99,1.41-4.5,2.08-.55.24-1.14.43-1.73.51-1.2.16-1.88-.58-1.63-1.75.19-.89.69-1.58,1.56-1.95.48-.21.87-.16,1.08.13.24.36.15.74-.1,1.02-.32.37-.7.7-1.07,1.02-.13.12-.34.15-.48.26-.18.13-.33.29-.49.44.23.15.46.44.68.42.57-.03,1.16-.11,1.69-.32,1.71-.68,3.39-1.42,5.08-2.13.36-.15.48-.33.32-.72-.29-.71-.48-1.44-.41-2.22.08-.83.7-1.55,1.45-1.64.07,0,.15.03.22.04-.03.08-.03.19-.09.25-.33.33-.7.63-1,.99-.31.36-.36.8-.19,1.26.16.42.29.84.44,1.26.08.23.23.34.49.25.08-.03.18-.01.28-.02-.07.07-.14.15-.22.2-.36.23-.23.5-.05.74.19.24.37.03.54-.08.64-.42,1.26-.86,1.91-1.24.33-.2.72-.29,1.08-.44h0M34.65,22.6c-.17-.79-.31-1.58-.51-2.36-.11-.44-.19-.45-.51-.18-.94.8-1.78,1.71-2.48,2.71-.59.84-1.09,1.74-1.2,2.79-.16,1.51.45,1.95,1.85,1.39,1.24-.5,2.88-2.31,2.86-4.35M25.41,19.82c.57-.02,1.88-1.24,1.96-1.75.06-.38-.19-.56-.59-.44-.66.19-1.5,1.27-1.51,1.95,0,.09.1.19.14.25"/><path class="cls-1" d="M60.33,21.46c-.18,0-.37.02-.55,0-.73-.09-1.12-.51-1.15-1.24-.05-1.08-.06-1.09-1.06-.59-.54.27-1.08.55-1.64.76-.61.23-.71.19-1.02-.42-.16-.32-.34-.14-.51-.08-1.01.36-2.01.77-3.04,1.07-.67.2-1.38.25-2.08.34-.2.03-.42-.02-.62-.08-.7-.2-.94-.56-.86-1.28.07-.67.07-.67-.58-.47-.8.26-1.59.56-2.39.78-.52.15-1.07.21-1.62.27-.44.05-.77-.24-.74-.64.05-.67.22-1.33.36-1.99.02-.09.12-.18.21-.22.08-.04.22-.07.28-.03.05.03.06.19.04.27-.14.48-.33.94-.44,1.43-.16.72.13,1.05.84.84,1.51-.43,3-.93,4.49-1.43.21-.07.36-.3.55-.43.53-.33,1.06-.66,1.61-.95.17-.09.41-.13.61-.1.18.03.34.19.51.3-.13.11-.24.25-.38.31-.67.31-1.35.57-2.01.89-.25.12-.51.3-.67.51-.54.73-.31,1.37.57,1.59.32.08.68.1,1,.06,1.68-.25,3.23-.9,4.76-1.58.3-.13.55-.39.8-.61.59-.52,1.19-1.02,1.97-1.26.38-.12.73-.08,1.05.15.05.04.11.15.09.2-.03.07-.11.15-.19.18-.92.42-1.85.84-2.77,1.26-.02.01-.05.02-.06.04-.1.2-.2.4-.3.6.21.03.46.13.64.06.58-.23,1.14-.54,1.71-.8.31-.14.62-.3.94-.4.4-.13.55,0,.5.41-.02.16-.07.31-.1.46-.17.99.36,1.6,1.36,1.44.9-.15,1.81-.34,2.66-.68,2.04-.82,4.05-1.74,6.06-2.61.07-.03.14-.08.21-.1.09-.02.18-.01.27-.01-.05.05-.1.12-.16.16-.27.17-.53.34-.81.48-2.26,1.17-4.57,2.24-7.02,2.95-.42.12-.87.17-1.3.26,0-.02,0-.05-.01-.07M56.89,18.33c.11-.05.22-.1.32-.14.11-.05.21-.1.32-.15.1-.06.2-.12.31-.17l.03-.04-.04.03c-.11.05-.22.09-.33.14-.1.05-.21.11-.31.16-.1.06-.2.12-.3.17l-.03.04.04-.03ZM50.43,17.86s-.07.06-.11.09c.04-.03.08-.06.11-.09"/><path class="cls-1" d="M43.18,16.92c-.87.59-1.73,1.18-2.6,1.76-.56.38-.77.81-.57,1.52.24.85.43,1.75.41,2.63-.05,2.01-.95,3.72-3.07,4.51-.42.16-.94.13-1.39.07-.57-.07-.89-.54-.96-1.18-.1-.96.2-1.81.64-2.63.62-1.18,1.46-2.17,2.43-3.07.31-.29.59-.6.9-.88.26-.25.33-.52.2-.85-.15-.39-.29-.79-.43-1.18-.28-.74-.5-1.49-.42-2.3.08-.8.66-1.47,1.4-1.6.09-.02.19.03.29.05-.04.08-.07.19-.13.25-.31.31-.66.59-.95.93-.33.38-.4.84-.21,1.33.27.71.51,1.43.78,2.14.17.45.27.47.69.19.52-.35,1.02-.74,1.57-1.06.45-.26.95-.42,1.43-.62h0ZM40.14,22.53c-.14-.72-.26-1.44-.44-2.14-.16-.62-.23-.65-.67-.22-.74.73-1.45,1.5-2.14,2.29-.65.74-1.09,1.61-1.33,2.56-.1.4-.14.83-.12,1.24.04.74.43,1.05,1.16.88.48-.11.98-.28,1.36-.57,1.34-.99,2.09-2.32,2.17-4.04"/><path class="cls-1" d="M101.92,21.56c-1.1.04-1.77-.71-1.6-1.77.07-.46-.11-.6-.54-.44-.27.1-.51.27-.77.39-.5.24-.99.48-1.5.69-.28.12-.62.11-.78-.16-.09-.16-.07-.47.02-.65.56-1.12,1.53-1.78,2.68-2.16.22-.07.53.1.79.21.09.04.14.2.2.31-.11-.04-.21-.11-.32-.13-.17-.04-.37-.12-.52-.07-1.02.35-1.88.91-2.46,1.85-.06.1-.1.28-.05.35.06.08.25.11.35.08.37-.12.74-.25,1.1-.41.62-.28,1.23-.6,1.86-.85.44-.17.56-.03.47.45-.02.13-.05.26-.08.38-.22.99.38,1.68,1.38,1.47,1.07-.22,2.16-.48,3.17-.89,1.9-.76,3.75-1.64,5.62-2.46.09-.04.18-.05.27-.08-.05.08-.09.19-.16.23-.52.3-1.03.65-1.58.88-1.9.81-3.82,1.61-5.74,2.36-.58.22-1.22.28-1.83.42"/><path class="cls-1" d="M44.06,15.4c-.11-.23-.24-.37-.21-.47.05-.16.2-.29.3-.44.08.14.23.28.23.42,0,.13-.16.26-.32.49"/><path class="cls-1" d="M88.23,14.35c.17.24.3.36.28.42-.07.2-.2.38-.3.57-.08-.08-.23-.17-.22-.24.03-.21.12-.4.24-.75"/><polygon class="cls-1" points="37.67 16.91 37.7 16.88 37.67 16.92 37.67 16.91"/><polygon class="cls-1" points="43.18 16.91 43.21 16.88 43.18 16.92 43.18 16.91"/><path class="cls-1" d="M50.43,17.86s-.08.06-.11.08c.04-.03.07-.06.11-.09h0"/><path class="cls-1" d="M57.5,17.99c.11-.05.22-.09.33-.14h0c-.1.07-.2.12-.31.18l-.04-.04Z"/><path class="cls-1" d="M57.19,18.16c.1-.05.21-.11.31-.16l.04.04c-.11.05-.21.1-.32.15l-.03-.04Z"/><path class="cls-1" d="M57.22,18.19c-.11.05-.22.1-.32.14h0c.1-.06.2-.12.3-.18l.03.04"/><polygon class="cls-1" points="57.83 17.85 57.87 17.82 57.84 17.86 57.83 17.85"/><polygon class="cls-1" points="56.89 18.33 56.85 18.37 56.89 18.33 56.89 18.33"/></svg>