<svg xmlns="http://www.w3.org/2000/svg" viewBox="0 0 33.41 33.41"><defs><style>.cls-1{fill:#c090c1;}.cls-2{fill:#fff;}</style></defs><g id="Layer_2" data-name="Layer 2"><g id="Objetos"><circle class="cls-1" cx="16.71" cy="16.71" r="16.71"/><path class="cls-2" d="M8.23,22.23H8.17L14.08,17l1.85,1.65a1.08,1.08,0,0,0,1.43,0L19.21,17l5.91,5.27H8.23Zm-.49-.36a.41.41,0,0,1,0-.16V11.46a.4.4,0,0,1,0-.15l5.92,5.28ZM25.06,10.94h.06L17,18.19a.49.49,0,0,1-.35.13.48.48,0,0,1-.34-.13L8.17,11H25.06Zm-5.43,5.65,5.92-5.28a.4.4,0,0,1,0,.15V21.71a.41.41,0,0,1,0,.16Zm5.43-6.21H8.23a1.15,1.15,0,0,0-.41.08,1.21,1.21,0,0,0-.35.24.93.93,0,0,0-.23.35,1,1,0,0,0-.08.41V21.71a1.05,1.05,0,0,0,.66,1,1,1,0,0,0,.41.08H25.06a1,1,0,0,0,.41-.08,1,1,0,0,0,.58-.58,1,1,0,0,0,.09-.42V11.46a1,1,0,0,0-.09-.41.93.93,0,0,0-.23-.35,1.21,1.21,0,0,0-.35-.24A1.15,1.15,0,0,0,25.06,10.38Z"/></g></g></svg>