<svg xmlns="http://www.w3.org/2000/svg" viewBox="0 0 33.41 33.41"><defs><style>.cls-1{fill:#c4a6ce;}.cls-2{fill:#fff;}</style></defs><g id="Layer_2" data-name="Layer 2"><g id="Objetos"><circle class="cls-1" cx="16.71" cy="16.71" r="16.71"/><g id="uiWB74"><path class="cls-2" d="M16.87,27.28l-.82-.77c-.41-.38-.82-.76-1.22-1.15a26.87,26.87,0,0,1-4.64-5.84A11,11,0,0,1,8.6,15.13,8,8,0,0,1,11,8.25a8,8,0,0,1,8.4-2,8,8,0,0,1,5.7,6.38,8.47,8.47,0,0,1-.66,5.24,21.15,21.15,0,0,1-3.62,5.54,36.76,36.76,0,0,1-3.7,3.68ZM16.71,6.54a7.25,7.25,0,0,0-5.17,2.25,7.23,7.23,0,0,0-2.2,6.26,10.32,10.32,0,0,0,1.5,4.1,26.23,26.23,0,0,0,4.52,5.68c.39.38.79.75,1.2,1.13l.33.31a34.66,34.66,0,0,0,3.37-3.38,20.52,20.52,0,0,0,3.5-5.34,7.79,7.79,0,0,0,.62-4.79,7.29,7.29,0,0,0-5.2-5.82A8.16,8.16,0,0,0,16.71,6.54ZM16.9,18a3.81,3.81,0,0,1,0-7.61h0a3.81,3.81,0,0,1,0,7.61v0Zm0-6.86a3,3,0,0,0-2.14.89,3.09,3.09,0,0,0-.9,2.18,3.05,3.05,0,0,0,3,3h0a3.06,3.06,0,0,0,0-6.11Z"/></g></g></g></svg>