<svg xmlns="http://www.w3.org/2000/svg" viewBox="0 0 33.41 33.41"><defs><style>.cls-1{fill:#7f528b;}.cls-2{fill:#fff;}</style></defs><g id="Layer_2" data-name="Layer 2"><g id="Objetos"><circle class="cls-1" cx="16.71" cy="16.71" r="16.71"/><g id="_3CkrO1" data-name="3CkrO1"><path class="cls-2" d="M21.85,26.53a7.68,7.68,0,0,1-2.13-.31,15.19,15.19,0,0,1-5-2.76,22,22,0,0,1-6.05-6.73,14.22,14.22,0,0,1-1-2.25,6.53,6.53,0,0,1,1-6,1.94,1.94,0,0,1,1.37-1,2,2,0,0,1,1.57.77l1.18,1.18,1.36,1.36a1.54,1.54,0,0,1,0,2.41l-.5.5c-.28.27-.56.54-.81.83a.47.47,0,0,0,0,.16,15,15,0,0,0,6.67,6.63l.27-.29c.34-.35.69-.72,1.05-1.08A1.78,1.78,0,0,1,22,19.31h0a1.84,1.84,0,0,1,1.29.65L26,22.58a1.82,1.82,0,0,1,.66,1.47,1.79,1.79,0,0,1-.91,1.28A6.78,6.78,0,0,1,21.85,26.53ZM10.15,8.2H10.1c-.24,0-.52.26-.82.69a5.75,5.75,0,0,0-.92,5.35,12,12,0,0,0,.92,2.13,21.26,21.26,0,0,0,5.85,6.49,14.45,14.45,0,0,0,4.79,2.64,6.25,6.25,0,0,0,5.37-.79,1.09,1.09,0,0,0,.57-.73,1.23,1.23,0,0,0-.44-.87L22.8,20.49a1.17,1.17,0,0,0-.76-.43h0a1.1,1.1,0,0,0-.72.4l-1,1.07-.56.59-.5-.11a15.76,15.76,0,0,1-7.1-7,1,1,0,0,1,.16-1c.26-.3.55-.58.84-.87l.49-.48c.49-.51.49-.87,0-1.36L12.25,10,11.07,8.76A1.51,1.51,0,0,0,10.15,8.2Z"/></g></g></g></svg>