<svg width="54" height="42" xmlns="http://www.w3.org/2000/svg" viewBox="0 0 54 42">
  <path fill="#c090c1" d="M12.8,40.4c-4.1,0-7.1-1.2-9.2-3.7-2.1-2.5-3.1-5.9-3.1-10.3s.7-7.7,2.2-10.6c1.5-2.9,3.3-5.3,5.5-7.2s4.4-3.4,6.6-4.6,4-1.9,5.5-2.5l1.9,4c-1.8.7-3.7,1.8-5.8,3-2,1.3-3.8,3.1-5.2,5.4s-2.2,5.5-2.2,9.5c.8-.4,1.6-.7,2.4-.8.7-.1,1.5-.2,2.4-.2,3.1,0,5.4.9,6.8,2.6s2.2,3.7,2.2,5.9-.9,4.8-2.6,6.6c-1.8,1.8-4.3,2.7-7.5,2.7ZM43.2,40.4c-4.1,0-7.1-1.2-9.2-3.7-2.1-2.5-3.1-5.9-3.1-10.3s.7-7.7,2.2-10.6c1.5-2.9,3.3-5.3,5.5-7.2,2.2-1.9,4.4-3.4,6.6-4.6s4-1.9,5.5-2.5l1.9,4c-1.8.7-3.7,1.8-5.8,3-2,1.3-3.8,3.1-5.2,5.4-1.4,2.3-2.2,5.5-2.2,9.5.9-.4,1.7-.7,2.4-.8.7-.1,1.5-.2,2.4-.2,3.1,0,5.4.9,6.8,2.6,1.4,1.7,2.2,3.7,2.2,5.9s-.9,4.8-2.6,6.6c-1.8,1.8-4.2,2.7-7.5,2.7Z"/>
</svg>